<?xml version="1.0" encoding="iso-8859-1"?>
<!-- Generator: Adobe Illustrator 18.0.0, SVG Export Plug-In . SVG Version: 6.00 Build 0)  -->
<!DOCTYPE svg PUBLIC "-//W3C//DTD SVG 1.1//EN" "http://www.w3.org/Graphics/SVG/1.1/DTD/svg11.dtd">
<svg version="1.1" id="Capa_1" xmlns="http://www.w3.org/2000/svg" xmlns:xlink="http://www.w3.org/1999/xlink" x="0px" y="0px"
	 viewBox="0 0 288.488 288.488" style="enable-background:new 0 0 288.488 288.488;" xml:space="preserve">
<g>
	<path style="fill:#231F20;" d="M280.988,0H7.501c-4.136,0-7.5,3.365-7.5,7.5v86.496c0,4.136,3.364,7.5,7.5,7.5h20
		c4.135,0,7.5-3.364,7.5-7.5V35h218.487v218.488H35v-58.996c0-4.136-3.364-7.5-7.5-7.5h-20c-4.135,0-7.5,3.364-7.5,7.5v86.496
		c0,4.135,3.365,7.5,7.5,7.5h273.488c4.135,0,7.5-3.365,7.5-7.5V7.5C288.488,3.365,285.124,0,280.988,0z"/>
	<path style="fill:#231F20;" d="M17.93,134.244v20c0,4.136,3.364,7.5,7.5,7.5h107.751l-33.952,33.951
		c-1.417,1.417-2.197,3.3-2.197,5.304c0,2.003,0.78,3.887,2.197,5.303l14.142,14.143c1.416,1.416,3.3,2.197,5.303,2.197
		c2.003,0,3.886-0.78,5.304-2.197l70.899-70.898c1.416-1.416,2.196-3.3,2.196-5.303s-0.78-3.886-2.196-5.303l-70.898-70.897
		c-1.417-1.416-3.3-2.197-5.303-2.197c-2.004,0-3.887,0.78-5.304,2.197L99.229,82.187c-2.923,2.924-2.923,7.682,0.001,10.606
		l33.952,33.952H25.43C21.294,126.744,17.93,130.108,17.93,134.244z"/>
</g>
<g>
</g>
<g>
</g>
<g>
</g>
<g>
</g>
<g>
</g>
<g>
</g>
<g>
</g>
<g>
</g>
<g>
</g>
<g>
</g>
<g>
</g>
<g>
</g>
<g>
</g>
<g>
</g>
<g>
</g>
</svg>
